<svg width="128" height="128" viewBox="0 0 128 128" fill="none" xmlns="http://www.w3.org/2000/svg">
<path d="M0 32C0 14.3269 14.3269 0 32 0H96C113.673 0 128 14.3269 128 32V96C128 113.673 113.673 128 96 128H32C14.3269 128 0 113.673 0 96V32Z" fill="#EFAE3D"/>
<path d="M43.68 55.4V46.664L53.312 43.416L55.888 26.84H68.992V43.416H82.32V55.4H68.992V79.256C68.992 82.0187 69.216 84.2587 69.664 85.976C70.112 87.6187 70.672 88.776 71.344 89.448C72.016 90.0453 72.912 90.568 74.032 91.016C78.512 92.584 81.0133 93.368 81.536 93.368V103H67.872C63.2427 103 59.6587 101.357 57.12 98.072C54.5813 94.712 53.312 89.2613 53.312 81.72V55.4H43.68Z" fill="white"/>
</svg>
