<svg width="163" height="161" viewBox="0 0 163 161" fill="none" xmlns="http://www.w3.org/2000/svg">
<path d="M23.021 153.682C30.439 157.902 39.306 160.012 49.623 160.012C59.94 160.012 68.786 157.902 76.161 153.682C83.579 149.418 89.27 143.493 93.235 135.904C97.242 128.273 99.246 119.427 99.246 109.366C99.246 99.2624 97.242 90.4164 93.235 82.8283C89.27 75.1973 83.579 69.2715 76.161 65.0509C68.786 60.7878 59.94 58.6562 49.623 58.6562C39.306 58.6562 30.439 60.7878 23.021 65.0509C15.646 69.2715 9.95402 75.1973 5.94702 82.8283C1.98202 90.4164 0 99.2624 0 109.366C0 119.427 1.98202 128.273 5.94702 135.904C9.95402 143.493 15.646 149.418 23.021 153.682Z" fill="#221F1F"/>
<path d="M58.2457 39.4037L58.2527 39.4C64.9417 35.5559 73.0827 33.5439 82.8367 33.5439C92.5917 33.5439 100.707 35.5562 107.348 39.3949L107.36 39.4019L107.372 39.4087C114.106 43.24 119.247 48.5892 122.855 55.533L122.861 55.545L122.867 55.557C126.516 62.4672 128.41 70.6424 128.41 80.2037C128.41 89.7182 126.518 97.8982 122.863 104.858L122.859 104.866C119.252 111.77 114.106 117.128 107.358 121.006C100.715 124.807 92.5957 126.799 82.8367 126.799C73.0817 126.799 64.9387 124.808 58.2487 121.005C51.5487 117.129 46.3997 111.772 42.7487 104.862C39.1347 97.9012 37.2637 89.7202 37.2637 80.2037C37.2637 70.6375 39.1377 62.4577 42.7487 55.5448C46.4027 48.5882 51.5517 43.2346 58.2457 39.4037Z" fill="white" stroke="white" stroke-width="8.10094"/>
<path d="M89.0254 11.6459L89.0344 11.6406C95.4314 7.9641 103.281 6 112.81 6C122.341 6 130.163 7.9646 136.511 11.6336L136.527 11.6433L136.544 11.6528C143.004 15.3284 147.925 20.447 151.39 27.1159L151.399 27.1327L151.408 27.1495C154.914 33.7885 156.763 41.6953 156.763 51.0396C156.763 60.3361 154.916 68.2496 151.402 74.9414L151.396 74.9519C147.932 81.5821 143.005 86.7117 136.527 90.4367C130.176 94.0687 122.347 96.0157 112.81 96.0157C103.28 96.0157 95.4274 94.0717 89.0294 90.4357C82.5984 86.7147 77.6674 81.5847 74.1574 74.9464C70.6844 68.2535 68.8584 60.3375 68.8584 51.0396C68.8584 41.6886 70.6884 33.7755 74.1574 27.1328C77.6704 20.4458 82.6024 15.321 89.0254 11.6459Z" fill="#F9D949" stroke="#F9D949" stroke-width="11.3413"/>
</svg>
